<svg width="205" height="33" viewBox="0 0 205 33" fill="none" xmlns="http://www.w3.org/2000/svg">
<path d="M34.2427 0.857178H4.92842C3.62133 0.857178 2.36776 1.37642 1.4435 2.30068C0.519243 3.22494 0 4.4785 0 5.7856V27.2144C0 28.5215 0.519243 29.7751 1.4435 30.6993C2.36776 31.6236 3.62133 32.1428 4.92842 32.1428H34.2427C35.5498 32.1428 36.8034 31.6236 37.7276 30.6993C38.6519 29.7751 39.1711 28.5215 39.1711 27.2144V5.7856C39.1711 4.4785 38.6519 3.22494 37.7276 2.30068C36.8034 1.37642 35.5498 0.857178 34.2427 0.857178ZM37.1997 20.4329H24.5436C23.4979 20.4329 22.495 20.0175 21.7556 19.2781C21.0162 18.5387 20.6008 17.5358 20.6008 16.4901C20.6008 15.4445 21.0162 14.4416 21.7556 13.7022C22.495 12.9628 23.4979 12.5474 24.5436 12.5474H37.1997V20.4329ZM24.5436 10.576C22.975 10.576 21.4708 11.1991 20.3617 12.3082C19.2525 13.4173 18.6294 14.9216 18.6294 16.4901C18.6294 18.0587 19.2525 19.5629 20.3617 20.6721C21.4708 21.7812 22.975 22.4043 24.5436 22.4043H37.1997V27.2144C37.1997 27.9987 36.8882 28.7508 36.3336 29.3053C35.7791 29.8599 35.027 30.1714 34.2427 30.1714H4.92842C4.14417 30.1714 3.39203 29.8599 2.83747 29.3053C2.28292 28.7508 1.97137 27.9987 1.97137 27.2144V5.7856C1.97137 5.00134 2.28292 4.2492 2.83747 3.69465C3.39203 3.14009 4.14417 2.82855 4.92842 2.82855H34.2427C35.027 2.82855 35.7791 3.14009 36.3336 3.69465C36.8882 4.2492 37.1997 5.00134 37.1997 5.7856V10.576H24.5436Z" fill="white"/>
<path d="M24.5515 18.4635C25.6402 18.4635 26.5228 17.5809 26.5228 16.4921C26.5228 15.4034 25.6402 14.5208 24.5515 14.5208C23.4627 14.5208 22.5801 15.4034 22.5801 16.4921C22.5801 17.5809 23.4627 18.4635 24.5515 18.4635Z" fill="white"/>
<path d="M54.4757 28.6074C53.6781 28.6074 52.9184 28.3415 52.1967 27.8098C51.513 27.278 51.1711 26.5183 51.1711 25.5307V8.77972C51.1711 7.90608 51.456 7.20337 52.0258 6.6716C52.6335 6.10184 53.3362 5.81696 54.1339 5.81696H59.2617C61.5408 5.81696 63.535 6.29176 65.2442 7.24136C66.9915 8.15298 68.3399 9.46343 69.2895 11.1727C70.2771 12.882 70.7709 14.9331 70.7709 17.3261C70.7709 19.4153 70.3151 21.3145 69.4035 23.0238C68.5299 24.733 67.2954 26.1005 65.7 27.126C64.1427 28.1136 62.3385 28.6074 60.2873 28.6074H54.4757ZM56.8118 25.0749H59.3187C61.7877 25.0749 63.6679 24.4292 64.9594 23.1377C66.2508 21.8083 66.8776 19.8711 66.8396 17.3261C66.8016 14.7432 66.1369 12.768 64.8454 11.4006C63.5539 10.0332 61.6927 9.34948 59.2617 9.34948H56.8687C55.7292 9.34948 55.1595 9.91924 55.1595 11.0588V23.3656C55.1595 24.5051 55.7102 25.0749 56.8118 25.0749Z" fill="#93C5FD"/>
<path d="M82.3976 29.1772C79.5488 29.1772 77.3267 28.3605 75.7314 26.7272C74.1361 25.0939 73.3384 22.8908 73.3384 20.118C73.3384 17.687 74.1361 15.6928 75.7314 14.1355C77.3647 12.5781 79.4539 11.7995 81.9988 11.7995C84.4678 11.7995 86.4429 12.5212 87.9243 13.9645C89.4057 15.37 90.1464 17.1172 90.1464 19.2064C90.1464 20.042 89.9185 20.6687 89.4627 21.0866C89.0448 21.5044 88.4941 21.7133 87.8104 21.7133H77.8965C77.5167 21.7133 77.3837 21.9222 77.4977 22.34C77.8015 23.4036 78.4093 24.2393 79.3209 24.847C80.2705 25.4168 81.3341 25.7016 82.5116 25.7016C83.3852 25.7016 84.2209 25.5877 85.0185 25.3598C85.8542 25.1319 86.5759 24.79 87.1836 24.3342C87.3735 24.1823 87.6204 24.1063 87.9243 24.1063C88.3421 24.1063 88.722 24.2962 89.0638 24.6761C89.4057 25.0179 89.5766 25.4358 89.5766 25.9295C89.5766 26.1574 89.5386 26.3854 89.4627 26.6133C89.3867 26.8412 89.2158 27.0691 88.9499 27.297C87.9623 28.0187 86.8987 28.5125 85.7592 28.7784C84.6577 29.0442 83.5372 29.1772 82.3976 29.1772ZM85.7022 18.7505C85.9301 18.7505 86.0441 18.6366 86.0441 18.4087C86.0441 17.5351 85.6453 16.7754 84.8476 16.1296C84.0879 15.4839 83.1383 15.161 81.9988 15.161C81.0112 15.161 80.0616 15.4269 79.15 15.9587C78.2763 16.4905 77.7446 17.1932 77.5546 18.0668C77.5546 18.0668 77.5546 18.0858 77.5546 18.1238C77.5167 18.2757 77.4977 18.4087 77.4977 18.5226C77.5357 18.6366 77.7066 18.6936 78.0105 18.6936L85.7022 18.7505Z" fill="#93C5FD"/>
<path d="M100.286 29.1772C99.7162 29.1772 99.1844 29.0442 98.6906 28.7784C98.1968 28.5504 97.8359 28.1896 97.608 27.6958L91.9674 14.4204C91.8914 14.1165 91.8534 13.8886 91.8534 13.7366C91.8534 13.1289 92.0624 12.6541 92.4802 12.3122C92.898 11.9704 93.3538 11.7995 93.8476 11.7995C94.1895 11.7995 94.5123 11.8944 94.8162 12.0843C95.1581 12.2743 95.405 12.5781 95.5569 12.996L99.5452 23.3086C99.7351 23.6885 99.982 23.8784 100.286 23.8784C100.666 23.8784 100.913 23.6885 101.027 23.3086L104.958 12.996C105.11 12.5781 105.338 12.2743 105.642 12.0843C105.984 11.8944 106.325 11.7995 106.667 11.7995C107.199 11.7995 107.655 11.9704 108.035 12.3122C108.453 12.6541 108.661 13.1099 108.661 13.6797C108.661 13.8696 108.623 14.1165 108.547 14.4204L102.964 27.6958C102.736 28.1896 102.375 28.5504 101.881 28.7784C101.387 29.0442 100.856 29.1772 100.286 29.1772Z" fill="#93C5FD"/>
<path d="M116.039 29.1772C114.557 29.1772 113.627 28.4745 113.247 27.0691L109.771 14.3064C109.733 14.1924 109.714 14.0785 109.714 13.9645C109.714 13.8506 109.714 13.7556 109.714 13.6797C109.714 13.1479 109.885 12.7111 110.227 12.3692C110.607 11.9894 111.082 11.7994 111.651 11.7994C112.069 11.7994 112.449 11.9134 112.791 12.1413C113.171 12.3312 113.399 12.6351 113.475 13.0529L115.583 22.9668C115.659 23.3846 115.83 23.5935 116.095 23.5935C116.361 23.5935 116.551 23.3846 116.665 22.9668L119.628 14.1924C119.818 13.6607 120.141 13.2808 120.597 13.0529C121.052 12.787 121.527 12.6541 122.021 12.6541C122.515 12.6541 122.971 12.787 123.388 13.0529C123.844 13.2808 124.148 13.6607 124.3 14.1924L127.263 22.9668C127.377 23.3846 127.567 23.5935 127.833 23.5935C128.098 23.5935 128.269 23.3846 128.345 22.9668L130.453 13.0529C130.529 12.6351 130.738 12.3312 131.08 12.1413C131.46 11.9134 131.859 11.7994 132.277 11.7994C132.846 11.7994 133.302 11.9894 133.644 12.3692C134.024 12.7111 134.214 13.1479 134.214 13.6797C134.214 13.7556 134.214 13.8506 134.214 13.9645C134.214 14.0785 134.195 14.1924 134.157 14.3064L130.681 27.0691C130.302 28.4745 129.371 29.1772 127.89 29.1772C127.244 29.1772 126.655 28.9873 126.123 28.6074C125.629 28.1896 125.288 27.6768 125.098 27.0691L122.477 18.7505C122.325 18.2568 122.154 18.0099 121.964 18.0099C121.736 18.0099 121.546 18.2568 121.394 18.7505L118.83 27.0691C118.64 27.6768 118.28 28.1896 117.748 28.6074C117.254 28.9873 116.684 29.1772 116.039 29.1772Z" fill="white"/>
<path d="M144.424 29.1772C142.79 29.1772 141.328 28.7973 140.037 28.0377C138.745 27.278 137.739 26.2334 137.017 24.904C136.295 23.5365 135.934 22.0172 135.934 20.3459C135.934 18.7126 136.295 17.2502 137.017 15.9587C137.739 14.6673 138.745 13.6607 140.037 12.939C141.328 12.1793 142.79 11.7994 144.424 11.7994C145.487 11.7994 146.437 11.9894 147.273 12.3692C148.108 12.7111 148.83 13.1669 149.438 13.7366C149.514 13.2049 149.742 12.806 150.121 12.5401C150.501 12.2363 150.919 12.0843 151.375 12.0843C151.869 12.0843 152.305 12.2553 152.685 12.5971C153.103 12.901 153.312 13.3758 153.312 14.0215V27.4109C153.312 27.9807 153.103 28.4175 152.685 28.7214C152.305 29.0252 151.869 29.1772 151.375 29.1772C150.881 29.1772 150.425 29.0252 150.007 28.7214C149.628 28.4175 149.438 27.9807 149.438 27.4109V27.183C148.83 27.7908 148.108 28.2656 147.273 28.6074C146.437 28.9873 145.487 29.1772 144.424 29.1772ZM144.766 25.6447C146.209 25.6447 147.349 25.1699 148.184 24.2203C149.02 23.2327 149.438 21.9412 149.438 20.3459C149.438 18.8265 149.02 17.611 148.184 16.6994C147.349 15.7878 146.209 15.332 144.766 15.332C143.284 15.332 142.088 15.7878 141.176 16.6994C140.265 17.611 139.809 18.8265 139.809 20.3459C139.809 21.9412 140.265 23.2327 141.176 24.2203C142.088 25.1699 143.284 25.6447 144.766 25.6447Z" fill="white"/>
<path d="M159.542 29.1772C159.049 29.1772 158.593 29.0252 158.175 28.7214C157.795 28.4175 157.605 27.9807 157.605 27.4109V5.75997C157.605 5.11425 157.795 4.63944 158.175 4.33557C158.593 3.99371 159.049 3.82278 159.542 3.82278C160.036 3.82278 160.473 3.99371 160.853 4.33557C161.271 4.63944 161.48 5.11425 161.48 5.75997V27.4109C161.48 27.9807 161.271 28.4175 160.853 28.7214C160.473 29.0252 160.036 29.1772 159.542 29.1772Z" fill="white"/>
<path d="M168.111 29.1772C167.617 29.1772 167.162 29.0252 166.744 28.7214C166.364 28.4175 166.174 27.9807 166.174 27.4109V5.75997C166.174 5.11425 166.364 4.63944 166.744 4.33557C167.162 3.99371 167.617 3.82278 168.111 3.82278C168.605 3.82278 169.042 3.99371 169.422 4.33557C169.839 4.63944 170.048 5.11425 170.048 5.75997V27.4109C170.048 27.9807 169.839 28.4175 169.422 28.7214C169.042 29.0252 168.605 29.1772 168.111 29.1772Z" fill="white"/>
<path d="M182.662 29.1772C179.814 29.1772 177.591 28.3605 175.996 26.7272C174.401 25.0939 173.603 22.8908 173.603 20.118C173.603 17.687 174.401 15.6928 175.996 14.1355C177.629 12.5781 179.719 11.7994 182.264 11.7994C184.732 11.7994 186.708 12.5211 188.189 13.9645C189.67 15.37 190.411 17.1172 190.411 19.2064C190.411 20.042 190.183 20.6687 189.727 21.0866C189.31 21.5044 188.759 21.7133 188.075 21.7133H178.161C177.781 21.7133 177.648 21.9222 177.762 22.34C178.066 23.4036 178.674 24.2393 179.586 24.847C180.535 25.4168 181.599 25.7016 182.776 25.7016C183.65 25.7016 184.486 25.5877 185.283 25.3598C186.119 25.1319 186.841 24.79 187.448 24.3342C187.638 24.1823 187.885 24.1063 188.189 24.1063C188.607 24.1063 188.987 24.2962 189.329 24.6761C189.67 25.0179 189.841 25.4357 189.841 25.9295C189.841 26.1574 189.803 26.3854 189.727 26.6133C189.651 26.8412 189.481 27.0691 189.215 27.297C188.227 28.0187 187.163 28.5125 186.024 28.7784C184.922 29.0442 183.802 29.1772 182.662 29.1772ZM185.967 18.7505C186.195 18.7505 186.309 18.6366 186.309 18.4087C186.309 17.5351 185.91 16.7754 185.112 16.1296C184.353 15.4839 183.403 15.161 182.264 15.161C181.276 15.161 180.326 15.4269 179.415 15.9587C178.541 16.4905 178.009 17.1932 177.819 18.0668C177.819 18.0668 177.819 18.0858 177.819 18.1238C177.781 18.2757 177.762 18.4087 177.762 18.5226C177.8 18.6366 177.971 18.6936 178.275 18.6936L185.967 18.7505Z" fill="white"/>
<path d="M200.266 29.1772C198.784 29.1772 197.569 28.7214 196.619 27.8098C195.67 26.8981 195.195 25.5307 195.195 23.7075V16.4715C195.195 16.0917 195.005 15.9017 194.625 15.9017H193.6C193.106 15.9017 192.688 15.7498 192.346 15.4459C192.004 15.1041 191.833 14.6862 191.833 14.1924C191.833 13.6607 192.004 13.2239 192.346 12.882C192.688 12.5401 193.106 12.3692 193.6 12.3692H194.625C195.005 12.3692 195.195 12.1793 195.195 11.7994V7.01345C195.195 6.48167 195.366 6.06385 195.708 5.75997C196.088 5.41812 196.543 5.24719 197.075 5.24719C197.645 5.24719 198.101 5.41812 198.443 5.75997C198.822 6.06385 199.012 6.48167 199.012 7.01345V11.7994C199.012 12.1793 199.202 12.3692 199.582 12.3692H202.659C203.115 12.3692 203.513 12.5401 203.855 12.882C204.197 13.2239 204.368 13.6607 204.368 14.1924C204.368 14.6862 204.197 15.1041 203.855 15.4459C203.551 15.7498 203.134 15.9017 202.602 15.9017H199.582C199.202 15.9017 199.012 16.0917 199.012 16.4715V23.1947C199.012 24.79 199.658 25.5877 200.949 25.5877C201.329 25.5877 201.728 25.5307 202.146 25.4168C202.564 25.3028 202.849 25.2458 203.001 25.2458C203.532 25.2458 203.931 25.4168 204.197 25.7586C204.501 26.1005 204.653 26.4993 204.653 26.9551C204.653 27.297 204.558 27.6388 204.368 27.9807C204.178 28.2846 203.874 28.5125 203.456 28.6644C203.039 28.8163 202.507 28.9303 201.861 29.0063C201.253 29.1202 200.722 29.1772 200.266 29.1772Z" fill="white"/>
</svg>
